<svg width="1584" height="396" viewBox="0 0 1584 396" fill="none" xmlns="http://www.w3.org/2000/svg">
<rect width="1584" height="396" fill="#F5F5F5"/>
<g id="Awesome banner" clip-path="url(#clip0_0_1)">
<rect width="1584" height="396" fill="url(#paint0_linear_0_1)"/>
<ellipse id="Ellipse 2" cx="323" cy="64" rx="285" ry="288" fill="url(#paint1_linear_0_1)" fill-opacity="0.1"/>
<g id="copyright">
<path d="M75.95 334.52L72.30 334.52L72.30 311.16L77.20 311.16L83.70 330.04Q83.60 329.02 83.50 327.62Q83.41 326.23 83.33 324.79Q83.25 323.35 83.25 322.23L83.25 311.16L86.90 311.16L86.90 334.52L82 334.52L75.57 315.64Q75.63 316.57 75.73 317.88Q75.82 319.19 75.89 320.57Q75.95 321.94 75.95 323.10L75.95 334.52M98.80 334.84Q96.46 334.84 94.67 333.96Q92.88 333.08 91.89 331.53Q90.90 329.98 90.90 327.93Q90.90 325.78 92.13 324.18Q93.36 322.58 95.34 322.17L95.34 322.10Q93.65 321.75 92.61 320.38Q91.57 319 91.57 317.11Q91.57 315.26 92.48 313.85Q93.39 312.44 95.02 311.64Q96.66 310.84 98.80 310.84Q100.94 310.84 102.59 311.64Q104.24 312.44 105.15 313.85Q106.06 315.26 106.06 317.11Q106.06 319 105.01 320.38Q103.95 321.75 102.26 322.10L102.26 322.17Q104.24 322.58 105.47 324.18Q106.70 325.78 106.70 327.93Q106.70 329.98 105.71 331.53Q104.72 333.08 102.93 333.96Q101.14 334.84 98.80 334.84M98.80 320.73Q100.30 320.73 101.23 319.82Q102.16 318.90 102.16 317.46Q102.16 315.99 101.23 315.08Q100.30 314.17 98.80 314.17Q97.30 314.17 96.37 315.08Q95.44 315.99 95.44 317.46Q95.44 318.90 96.37 319.82Q97.30 320.73 98.80 320.73M98.80 331.45Q100.56 331.45 101.68 330.42Q102.80 329.40 102.80 327.74Q102.80 326.04 101.68 325Q100.56 323.96 98.80 323.96Q97.04 323.96 95.92 325Q94.80 326.04 94.80 327.74Q94.80 329.40 95.92 330.42Q97.04 331.45 98.80 331.45M114.35 334.52L110.70 334.52L110.70 311.16L115.60 311.16L122.10 330.04Q122 329.02 121.90 327.62Q121.81 326.23 121.73 324.79Q121.65 323.35 121.65 322.23L121.65 311.16L125.30 311.16L125.30 334.52L120.40 334.52L113.97 315.64Q114.03 316.57 114.13 317.88Q114.22 319.19 114.29 320.57Q114.35 321.94 114.35 323.10" fill="white" fill-opacity="0.9"/>
<path d="M161.48 325.24L151.24 325.24L151.24 322.68L161.48 322.68" fill="white" fill-opacity="0.9"/>
<path d="M195.02 334.84Q191.82 334.84 189.96 333.05Q188.11 331.26 188.11 328.12L188.11 317.56Q188.11 314.42 189.96 312.63Q191.82 310.84 195.02 310.84Q198.15 310.84 200.01 312.65Q201.87 314.46 201.87 317.56L198.99 317.56Q198.99 315.58 197.95 314.50Q196.91 313.43 195.02 313.43Q193.13 313.43 192.06 314.50Q190.99 315.58 190.99 317.56L190.99 328.12Q190.99 330.10 192.06 331.18Q193.13 332.25 195.02 332.25Q196.91 332.25 197.95 331.18Q198.99 330.10 198.99 328.12L201.87 328.12Q201.87 331.22 200.01 333.03Q198.15 334.84 195.02 334.84" fill="white" fill-opacity="0.9"/>
<path d="M213.96 334.84Q210.83 334.84 209 333.02Q207.18 331.19 207.18 327.80L207.18 317.88Q207.18 314.49 209 312.66Q210.83 310.84 213.96 310.84Q217.10 310.84 218.92 312.66Q220.75 314.49 220.75 317.85L220.75 327.80Q220.75 331.19 218.92 333.02Q217.10 334.84 213.96 334.84M213.96 332.25Q215.85 332.25 216.86 331.18Q217.87 330.10 217.87 328.12L217.87 317.56Q217.87 315.58 216.86 314.50Q215.85 313.43 213.96 313.43Q212.11 313.43 211.08 314.50Q210.06 315.58 210.06 317.56L210.06 328.12Q210.06 330.10 211.08 331.18Q212.11 332.25 213.96 332.25" fill="white" fill-opacity="0.9"/>
<path d="M228.65 334.52L225.87 334.52L225.87 311.16L230.12 311.16L233.10 321.27L236.20 311.16L240.46 311.16L240.46 334.52L237.67 334.52L237.67 323.48Q237.67 321.91 237.72 319.88Q237.77 317.85 237.87 315.77Q237.96 313.69 238.09 312.02L234.31 324.09L231.82 324.09L228.20 312.31Q228.46 314.68 228.55 317.50Q228.65 320.31 228.65 323.48" fill="white" fill-opacity="0.9"/>
<path d="M247.85 334.52L245.07 334.52L245.07 311.16L249.32 311.16L252.30 321.27L255.40 311.16L259.66 311.16L259.66 334.52L256.87 334.52L256.87 323.48Q256.87 321.91 256.92 319.88Q256.97 317.85 257.07 315.77Q257.16 313.69 257.29 312.02L253.51 324.09L251.02 324.09L247.40 312.31Q247.66 314.68 247.75 317.50Q247.85 320.31 247.85 323.48" fill="white" fill-opacity="0.9"/>
<path d="M271.56 334.84Q268.30 334.84 266.57 333.03Q264.84 331.22 264.84 328.12L264.84 311.16L267.72 311.16L267.72 328.12Q267.72 330.04 268.67 331.16Q269.61 332.28 271.56 332.28Q273.48 332.28 274.44 331.16Q275.40 330.04 275.40 328.12L275.40 311.16L278.28 311.16L278.28 328.12Q278.28 331.26 276.57 333.05Q274.86 334.84 271.56 334.84" fill="white" fill-opacity="0.9"/>
<path d="M286.83 334.52L284.04 334.52L284.04 311.16L287.88 311.16L295.02 331.16Q294.95 330.36 294.87 329.19Q294.79 328.02 294.75 326.73Q294.70 325.43 294.70 324.28L294.70 311.16L297.48 311.16L297.48 334.52L293.64 334.52L286.54 314.52Q286.60 315.29 286.67 316.46Q286.73 317.62 286.78 318.92Q286.83 320.22 286.83 321.40" fill="white" fill-opacity="0.9"/>
<path d="M316.20 334.52L303.72 334.52L303.72 331.90L308.49 331.90L308.49 313.78L303.72 313.78L303.72 311.16L316.20 311.16L316.20 313.78L311.43 313.78L311.43 331.90L316.20 331.90" fill="white" fill-opacity="0.9"/>
<path d="M330.60 334.52L327.72 334.52L327.72 313.78L321.32 313.78L321.32 311.16L337 311.16L337 313.78L330.60 313.78" fill="white" fill-opacity="0.9"/>
<path d="M349.80 334.52L346.92 334.52L346.92 325.78L339.88 311.16L342.95 311.16L347.50 320.76Q347.88 321.56 348.11 322.12Q348.33 322.68 348.39 322.94Q348.46 322.68 348.70 322.12Q348.94 321.56 349.32 320.76L353.87 311.16L356.84 311.16L349.80 325.78" fill="white" fill-opacity="0.9"/>
<path d="M382.83 334.52L380.04 334.52L380.04 311.16L383.88 311.16L391.02 331.16Q390.95 330.36 390.87 329.19Q390.79 328.02 390.75 326.73Q390.70 325.43 390.70 324.28L390.70 311.16L393.48 311.16L393.48 334.52L389.64 334.52L382.54 314.52Q382.60 315.29 382.67 316.46Q382.73 317.62 382.78 318.92Q382.83 320.22 382.83 321.40" fill="white" fill-opacity="0.9"/>
<path d="M405.96 334.84Q402.83 334.84 401 333.02Q399.18 331.19 399.18 327.80L399.18 317.88Q399.18 314.49 401 312.66Q402.83 310.84 405.96 310.84Q409.10 310.84 410.92 312.66Q412.75 314.49 412.75 317.85L412.75 327.80Q412.75 331.19 410.92 333.02Q409.10 334.84 405.96 334.84M405.96 332.25Q407.85 332.25 408.86 331.18Q409.87 330.10 409.87 328.12L409.87 317.56Q409.87 315.58 408.86 314.50Q407.85 313.43 405.96 313.43Q404.11 313.43 403.08 314.50Q402.06 315.58 402.06 317.56L402.06 328.12Q402.06 330.10 403.08 331.18Q404.11 332.25 405.96 332.25" fill="white" fill-opacity="0.9"/>
<path d="M424.55 334.52L418.51 334.52L418.51 311.16L424.55 311.16Q426.83 311.16 428.47 312.02Q430.12 312.89 431.03 314.46Q431.95 316.02 431.95 318.17L431.95 327.48Q431.95 329.62 431.03 331.21Q430.12 332.79 428.47 333.66Q426.83 334.52 424.55 334.52M421.39 313.72L421.39 331.96L424.55 331.96Q426.67 331.96 427.87 330.78Q429.07 329.59 429.07 327.48L429.07 318.17Q429.07 316.09 427.87 314.90Q426.67 313.72 424.55 313.72" fill="white" fill-opacity="0.9"/>
<path d="M451.40 334.52L437.96 334.52L437.96 311.16L451.40 311.16L451.40 313.78L440.81 313.78L440.81 321.02L450.28 321.02L450.28 323.58L440.81 323.58L440.81 331.90L451.40 331.90" fill="white" fill-opacity="0.9"/>
<path d="M463.69 334.84Q460.30 334.84 458.28 333.05Q456.27 331.26 456.27 328.12L459.15 328.12Q459.15 330.07 460.39 331.18Q461.64 332.28 463.69 332.28Q465.67 332.28 466.86 331.13Q468.04 329.98 468.04 328.12Q468.04 326.71 467.29 325.67Q466.54 324.63 465.13 324.25L461.58 323.26Q459.37 322.62 458.11 320.97Q456.84 319.32 456.84 317.08Q456.84 315.22 457.67 313.82Q458.51 312.41 460.01 311.62Q461.51 310.84 463.47 310.84Q465.45 310.84 466.97 311.62Q468.49 312.41 469.35 313.80Q470.22 315.19 470.22 317.02L467.34 317.02Q467.34 315.42 466.25 314.41Q465.16 313.40 463.47 313.40Q461.77 313.40 460.71 314.41Q459.66 315.42 459.66 317.02Q459.66 318.30 460.35 319.21Q461.03 320.12 462.28 320.47L465.93 321.50Q468.27 322.14 469.56 323.91Q470.86 325.69 470.86 328.12Q470.86 331.19 468.91 333.02Q466.95 334.84 463.69 334.84" fill="white" fill-opacity="0.9"/>
</g>
<path d="M74.37 197.64L72.21 197.64L72.21 180.12L77.85 180.12Q80.30 180.12 81.75 181.52Q83.20 182.93 83.20 185.28Q83.20 187.63 81.75 189.04Q80.30 190.44 77.85 190.44L74.37 190.44L74.37 197.64M74.37 182.06L74.37 188.50L77.85 188.50Q79.26 188.50 80.12 187.62Q80.97 186.74 80.97 185.28Q80.97 183.79 80.12 182.93Q79.26 182.06 77.85 182.06" fill="white" fill-opacity="0.7"/>
<path d="M91.60 197.83Q89.22 197.83 87.82 196.44Q86.42 195.05 86.42 192.55L86.42 189.53Q86.42 187.01 87.81 185.63Q89.20 184.25 91.60 184.25Q94 184.25 95.39 185.63Q96.78 187.01 96.78 189.53L96.78 192.55Q96.78 195.05 95.38 196.44Q93.98 197.83 91.60 197.83M91.60 195.91Q93.02 195.91 93.82 195.12Q94.62 194.33 94.62 192.79L94.62 189.29Q94.62 187.75 93.82 186.96Q93.02 186.17 91.60 186.17Q90.21 186.17 89.39 186.96Q88.58 187.75 88.58 189.29L88.58 192.79Q88.58 194.33 89.39 195.12Q90.21 195.91 91.60 195.91" fill="white" fill-opacity="0.7"/>
<path d="M106.53 197.83L105.47 197.83Q103.26 197.83 102.05 196.84Q100.84 195.84 100.84 194.02LNaN 194.02QNaN 194.93 103.65 195.44Q104.30 195.96 105.47 195.96L106.53 195.96Q107.73 195.96 108.39 195.43Q109.05 194.90 109.05 193.94Q109.05 192.24 107.49 192.02L103.84 191.50Q102.50 191.30 101.75 190.38Q101.01 189.46 101.01 187.94Q101.01 186.22 102.20 185.23Q103.38 184.25 105.47 184.25L106.53 184.25Q108.45 184.25 109.66 185.20Q110.87 186.14 110.97 187.68L108.78 187.68Q108.74 186.98 108.12 186.53Q107.51 186.07 106.53 186.07L105.47 186.07Q104.37 186.07 103.74 186.58Q103.12 187.08 103.12 187.94Q103.12 189.34 104.39 189.53L107.80 190.01Q111.16 190.49 111.16 193.94Q111.16 195.79 109.95 196.81Q108.74 197.83 106.53 197.83" fill="white" fill-opacity="0.7"/>
<path d="M125.56 197.64L121.72 197.64Q120.09 197.64 119.10 196.69Q118.12 195.74 118.12 194.16L118.12 186.41L114.33 186.41L114.33 184.44L118.12 184.44L118.12 180.72L120.28 180.72L120.28 184.44L125.68 184.44L125.68 186.41L120.28 186.41L120.28 194.16Q120.28 194.83 120.68 195.25Q121.07 195.67 121.72 195.67L125.56 195.67" fill="white" fill-opacity="0.7"/>
<path d="M131.06 197.64L129.04 197.64L129.04 184.44L130.91 184.44L130.91 186.19L130.96 186.19Q131.08 185.30 131.67 184.75Q132.26 184.20 133.17 184.20Q134.03 184.20 134.63 184.70Q135.23 185.21 135.50 186.07L135.52 186.07Q135.69 185.21 136.28 184.70Q136.86 184.20 137.78 184.20Q139.05 184.20 139.80 185.15Q140.56 186.10 140.56 187.61L140.56 197.64L138.54 197.64L138.54 187.58Q138.54 186.79 138.16 186.32Q137.78 185.86 137.10 185.86Q136.46 185.86 136.07 186.31Q135.69 186.77 135.69 187.56L135.69 197.64L133.91 197.64L133.91 187.58Q133.91 186.79 133.53 186.32Q133.14 185.86 132.50 185.86Q131.82 185.86 131.44 186.31Q131.06 186.77 131.06 187.56" fill="white" fill-opacity="0.7"/>
<path d="M148.05 197.88Q146.01 197.88 144.81 196.74Q143.61 195.60 143.61 193.75Q143.61 192.53 144.16 191.62Q144.71 190.70 145.70 190.19Q146.68 189.67 147.95 189.67L152.03 189.67L152.03 188.64Q152.03 186.07 149.22 186.07Q147.98 186.07 147.21 186.53Q146.44 186.98 146.39 187.80L144.23 187.80Q144.35 186.24 145.68 185.22Q147.02 184.20 149.22 184.20Q151.62 184.20 152.91 185.35Q154.19 186.50 154.19 188.57L154.19 197.64L152.06 197.64L152.06 195.24L152.01 195.24Q151.82 196.46 150.78 197.17Q149.75 197.88 148.05 197.88M148.58 196.06Q150.16 196.06 151.10 195.29Q152.03 194.52 152.03 193.20L152.03 191.35L148.19 191.35Q147.14 191.35 146.48 191.99Q145.82 192.62 145.82 193.68Q145.82 194.78 146.55 195.42Q147.28 196.06 148.58 196.06" fill="white" fill-opacity="0.7"/>
<path d="M160.77 197.64L158.61 197.64L158.61 184.44L160.77 184.44L160.77 186.96L160.79 186.96Q160.96 185.64 161.87 184.92Q162.78 184.20 164.30 184.20Q166.29 184.20 167.46 185.42Q168.64 186.65 168.64 188.76L168.64 197.64L166.48 197.64L166.48 189.14Q166.48 187.63 165.72 186.83Q164.97 186.02 163.67 186.02Q162.33 186.02 161.55 186.86Q160.77 187.70 160.77 189.24" fill="white" fill-opacity="0.7"/>
<path d="M188.61 197.64L186.40 197.64L190.96 180.12L193.86 180.12L198.40 197.64L196.22 197.64L195.06 192.98L189.76 192.98L188.61 197.64M191.54 185.74L190.19 191.16L194.61 191.16L193.26 185.76Q192.88 184.22 192.66 183.19Q192.45 182.16 192.40 181.85Q192.35 182.16 192.14 183.19Q191.92 184.22 191.54 185.74" fill="white" fill-opacity="0.7"/>
<path d="M203.97 197.64L201.81 197.64L201.81 180.12L207.45 180.12Q209.90 180.12 211.35 181.52Q212.80 182.93 212.80 185.28Q212.80 187.63 211.35 189.04Q209.90 190.44 207.45 190.44L203.97 190.44L203.97 197.64M203.97 182.06L203.97 188.50L207.45 188.50Q208.86 188.50 209.72 187.62Q210.57 186.74 210.57 185.28Q210.57 183.79 209.72 182.93Q208.86 182.06 207.45 182.06" fill="white" fill-opacity="0.7"/>
<path d="M225.88 197.64L216.52 197.64L216.52 195.67L220.10 195.67L220.10 182.09L216.52 182.09L216.52 180.12L225.88 180.12L225.88 182.09L222.30 182.09L222.30 195.67L225.88 195.67" fill="white" fill-opacity="0.7"/>
<path d="MNaN 197.88Q247.67 197.88 246.24 196.48Q244.82 195.07 244.82 192.60L244.82 189.48Q244.82 187.01 246.24 185.60Q247.67 184.20 NaN 184.20Q251.56 184.20 252.72 184.82Q253.89 185.45 254.54 186.58Q255.18 187.70 255.18 189.24L255.18 191.59L246.93 191.59L246.93 192.84Q246.93 194.30 247.77 195.16Q248.61 196.01 NaN 196.01Q251.20 196.01 251.98 195.54Q252.76 195.07 252.93 194.28L255.09 194.28Q254.87 195.94 253.48 196.91Q252.09 197.88 NaN 197.88M246.93 189.24L246.93 189.91L253.07 189.91L253.07 189.24Q253.07 187.68 252.27 186.83Q251.46 185.98 NaN 185.98Q248.54 185.98 247.73 186.83Q246.93 187.68 246.93 189.24" fill="white" fill-opacity="0.7"/>
<path d="M261.57 197.64L259.41 197.64L259.41 184.44L261.57 184.44L261.57 186.96L261.59 186.96Q261.76 185.64 262.67 184.92Q263.58 184.20 265.10 184.20Q267.09 184.20 268.26 185.42Q269.44 186.65 269.44 188.76L269.44 197.64L267.28 197.64L267.28 189.14Q267.28 187.63 266.52 186.83Q265.77 186.02 264.47 186.02Q263.13 186.02 262.35 186.86Q261.57 187.70 261.57 189.24" fill="white" fill-opacity="0.7"/>
<path d="M277.65 197.88Q275.61 197.88 274.41 196.74Q273.21 195.60 273.21 193.75Q273.21 192.53 273.76 191.62Q274.31 190.70 275.30 190.19Q276.28 189.67 277.55 189.67L281.63 189.67L281.63 188.64Q281.63 186.07 278.82 186.07Q277.58 186.07 276.81 186.53Q276.04 186.98 275.99 187.80L273.83 187.80Q273.95 186.24 275.28 185.22Q276.62 184.20 278.82 184.20Q281.22 184.20 282.51 185.35Q283.79 186.50 283.79 188.57L283.79 197.64L281.66 197.64L281.66 195.24L281.61 195.24Q281.42 196.46 280.38 197.17Q279.35 197.88 277.65 197.88M278.18 196.06Q279.76 196.06 280.70 195.29Q281.63 194.52 281.63 193.20L281.63 191.35L277.79 191.35Q276.74 191.35 276.08 191.99Q275.42 192.62 275.42 193.68Q275.42 194.78 276.15 195.42Q276.88 196.06 278.18 196.06" fill="white" fill-opacity="0.7"/>
<path d="M293.97 197.88Q292.48 197.88 291.52 197.15Q290.56 196.42 290.39 195.12L290.37 195.12L290.37 197.64L288.21 197.64L288.21 180.12L290.37 180.12L290.37 183.96L290.32 186.96L290.34 186.96Q290.54 185.69 291.51 184.94Q292.48 184.20 293.97 184.20Q295.96 184.20 297.14 185.52Q298.31 186.84 298.31 189.12L298.31 192.98Q298.31 195.24 297.14 196.56Q295.96 197.88 293.97 197.88M293.25 196.01Q294.62 196.01 295.38 195.29Q296.15 194.57 296.15 192.96L296.15 189.12Q296.15 187.49 295.38 186.78Q294.62 186.07 293.25 186.07Q291.93 186.07 291.15 186.91Q290.37 187.75 290.37 189.24L290.37 192.84Q290.37 194.33 291.15 195.17Q291.93 196.01 293.25 196.01" fill="white" fill-opacity="0.7"/>
<path d="M313.60 197.64L309.52 197.64Q307.77 197.64 306.72 196.62Q305.68 195.60 305.68 193.92L305.68 182.09L301.12 182.09L301.12 180.12L307.84 180.12L307.84 193.92Q307.84 194.74 308.30 195.20Q308.75 195.67 309.52 195.67L313.60 195.67" fill="white" fill-opacity="0.7"/>
<path d="M322 197.88Q319.67 197.88 318.24 196.48Q316.82 195.07 316.82 192.60L316.82 189.48Q316.82 187.01 318.24 185.60Q319.67 184.20 322 184.20Q323.56 184.20 324.72 184.82Q325.89 185.45 326.54 186.58Q327.18 187.70 327.18 189.24L327.18 191.59L318.93 191.59L318.93 192.84Q318.93 194.30 319.77 195.16Q320.61 196.01 322 196.01Q323.20 196.01 323.98 195.54Q324.76 195.07 324.93 194.28L327.09 194.28Q326.87 195.94 325.48 196.91Q324.09 197.88 322 197.88M318.93 189.24L318.93 189.91L325.07 189.91L325.07 189.24Q325.07 187.68 324.27 186.83Q323.46 185.98 322 185.98Q320.54 185.98 319.73 186.83Q318.93 187.68 318.93 189.24" fill="white" fill-opacity="0.7"/>
<path d="M336.93 197.83L335.87 197.83Q333.66 197.83 332.45 196.84Q331.24 195.84 331.24 194.02L333.40 194.02Q333.40 194.93 334.05 195.44Q334.70 195.96 335.87 195.96L336.93 195.96Q338.13 195.96 338.79 195.43Q339.45 194.90 339.45 193.94Q339.45 192.24 337.89 192.02L334.24 191.50Q332.90 191.30 332.15 190.38Q331.41 189.46 331.41 187.94Q331.41 186.22 332.60 185.23Q333.78 184.25 335.87 184.25L336.93 184.25Q338.85 184.25 340.06 185.20Q341.27 186.14 341.37 187.68L339.18 187.68Q339.14 186.98 338.52 186.53Q337.91 186.07 336.93 186.07L335.87 186.07Q334.77 186.07 334.14 186.58Q333.52 187.08 333.52 187.94Q333.52 189.34 334.79 189.53L338.20 190.01Q341.56 190.49 341.56 193.94Q341.56 195.79 340.35 196.81Q339.14 197.83 336.93 197.83" fill="white" fill-opacity="0.7"/>
<path d="M362.37 201.96L360.21 201.96L360.21 184.44L362.37 184.44L362.37 186.96L362.39 186.96Q362.56 185.66 363.52 184.93Q364.48 184.20 365.97 184.20Q367.96 184.20 369.14 185.51Q370.31 186.82 370.31 189.10L370.31 192.96Q370.31 195.24 369.14 196.56Q367.96 197.88 365.97 197.88Q364.48 197.88 363.52 197.14Q362.56 196.39 362.39 195.12L362.32 195.12L362.37 198.12L362.37 201.96M365.25 196.01Q366.62 196.01 367.38 195.29Q368.15 194.57 368.15 192.96L368.15 189.12Q368.15 187.49 367.38 186.78Q366.62 186.07 365.25 186.07Q363.93 186.07 363.15 186.91Q362.37 187.75 362.37 189.24L362.37 192.84Q362.37 194.33 363.15 195.17Q363.93 196.01 365.25 196.01" fill="white" fill-opacity="0.7"/>
<path d="M377.25 197.64L375.09 197.64L375.09 184.44L377.25 184.44L377.25 186.96L377.30 186.96Q377.46 185.69 378.38 184.94Q379.29 184.20 380.82 184.20Q382.89 184.20 384 185.44Q385.12 186.67 385.12 188.95L385.12 190.08L382.96 190.08L382.96 188.95Q382.96 186.07 380.15 186.07Q378.74 186.07 377.99 186.89Q377.25 187.70 377.25 189.24" fill="white" fill-opacity="0.7"/>
<path d="M394 197.83Q391.62 197.83 390.22 196.44Q388.82 195.05 388.82 192.55L388.82 189.53Q388.82 187.01 390.21 185.63Q391.60 184.25 394 184.25Q396.40 184.25 397.79 185.63Q399.18 187.01 399.18 189.53L399.18 192.55Q399.18 195.05 397.78 196.44Q396.38 197.83 394 197.83M394 195.91Q395.42 195.91 396.22 195.12Q397.02 194.33 397.02 192.79L397.02 189.29Q397.02 187.75 396.22 186.96Q395.42 186.17 394 186.17Q392.61 186.17 391.79 186.96Q390.98 187.75 390.98 189.29L390.98 192.79Q390.98 194.33 391.79 195.12Q392.61 195.91 394 195.91" fill="white" fill-opacity="0.7"/>
<path d="M408.76 201.96L405.06 201.96L405.06 199.99L408.78 199.99Q409.91 199.99 410.56 199.36Q411.21 198.72 411.21 197.64L411.21 196.44L411.26 194.28L411.18 194.28Q410.99 195.46 410.06 196.09Q409.12 196.73 407.70 196.73Q405.66 196.73 404.49 195.43Q403.31 194.14 403.31 191.88L403.31 189.10Q403.31 186.84 404.49 185.52Q405.66 184.20 407.70 184.20Q409.12 184.20 410.06 184.87Q410.99 185.54 411.18 186.72L411.23 186.72L411.23 184.44L413.37 184.44L413.37 197.64Q413.37 199.63 412.13 200.80Q410.90 201.96 408.76 201.96M408.35 194.93Q409.70 194.93 410.46 194.09Q411.23 193.25 411.23 191.76L411.23 189.24Q411.23 187.75 410.46 186.91Q409.70 186.07 408.35 186.07Q406.98 186.07 406.23 186.86Q405.47 187.66 405.47 189L405.47 192Q405.47 193.34 406.23 194.14Q406.98 194.93 408.35 194.93" fill="white" fill-opacity="0.7"/>
<path d="M420.45 197.64L418.29 197.64L418.29 184.44L420.45 184.44L420.45 186.96L420.50 186.96Q420.66 185.69 421.58 184.94Q422.49 184.20 424.02 184.20Q426.09 184.20 427.20 185.44Q428.32 186.67 428.32 188.95L428.32 190.08L426.16 190.08L426.16 188.95Q426.16 186.07 423.35 186.07Q421.94 186.07 421.19 186.89Q420.45 187.70 420.45 189.24" fill="white" fill-opacity="0.7"/>
<path d="M436.05 197.88Q434.01 197.88 432.81 196.74Q431.61 195.60 431.61 193.75Q431.61 192.53 432.16 191.62Q432.71 190.70 433.70 190.19Q434.68 189.67 435.95 189.67L440.03 189.67L440.03 188.64Q440.03 186.07 437.22 186.07Q435.98 186.07 435.21 186.53Q434.44 186.98 434.39 187.80L432.23 187.80Q432.35 186.24 433.68 185.22Q435.02 184.20 437.22 184.20Q439.62 184.20 440.91 185.35Q442.19 186.50 442.19 188.57L442.19 197.64L440.06 197.64L440.06 195.24L440.01 195.24Q439.82 196.46 438.78 197.17Q437.75 197.88 436.05 197.88M436.58 196.06Q438.16 196.06 439.10 195.29Q440.03 194.52 440.03 193.20L440.03 191.35L436.19 191.35Q435.14 191.35 434.48 191.99Q433.82 192.62 433.82 193.68Q433.82 194.78 434.55 195.42Q435.28 196.06 436.58 196.06" fill="white" fill-opacity="0.7"/>
<path d="M447.86 197.64L445.84 197.64L445.84 184.44L447.71 184.44L447.71 186.19L447.76 186.19Q447.88 185.30 448.47 184.75Q449.06 184.20 449.97 184.20Q450.83 184.20 451.43 184.70Q452.03 185.21 452.30 186.07L452.32 186.07Q452.49 185.21 453.08 184.70Q453.66 184.20 454.58 184.20Q455.85 184.20 456.60 185.15Q457.36 186.10 457.36 187.61L457.36 197.64L455.34 197.64L455.34 187.58Q455.34 186.79 454.96 186.32Q454.58 185.86 453.90 185.86Q453.26 185.86 452.87 186.31Q452.49 186.77 452.49 187.56L452.49 197.64L450.71 197.64L450.71 187.58Q450.71 186.79 450.33 186.32Q449.94 185.86 449.30 185.86Q448.62 185.86 448.24 186.31Q447.86 186.77 447.86 187.56" fill="white" fill-opacity="0.7"/>
<path d="M462.26 197.64L460.24 197.64L460.24 184.44L462.11 184.44L462.11 186.19L462.16 186.19Q462.28 185.30 462.87 184.75Q463.46 184.20 464.37 184.20Q465.23 184.20 465.83 184.70Q466.43 185.21 466.70 186.07L466.72 186.07Q466.89 185.21 467.48 184.70Q468.06 184.20 468.98 184.20Q470.25 184.20 471 185.15Q471.76 186.10 471.76 187.61L471.76 197.64L469.74 197.64L469.74 187.58Q469.74 186.79 469.36 186.32Q468.98 185.86 468.30 185.86Q467.66 185.86 467.27 186.31Q466.89 186.77 466.89 187.56L466.89 197.64L465.11 197.64L465.11 187.58Q465.11 186.79 464.73 186.32Q464.34 185.86 463.70 185.86Q463.02 185.86 462.64 186.31Q462.26 186.77 462.26 187.56" fill="white" fill-opacity="0.7"/>
<path d="M479.25 197.88Q477.21 197.88 476.01 196.74Q474.81 195.60 474.81 193.75Q474.81 192.53 475.36 191.62Q475.91 190.70 476.90 190.19Q477.88 189.67 479.15 189.67L483.23 189.67L483.23 188.64Q483.23 186.07 480.42 186.07Q479.18 186.07 478.41 186.53Q477.64 186.98 477.59 187.80L475.43 187.80Q475.55 186.24 476.88 185.22Q478.22 184.20 480.42 184.20Q482.82 184.20 484.11 185.35Q485.39 186.50 485.39 188.57L485.39 197.64L483.26 197.64L483.26 195.24L483.21 195.24Q483.02 196.46 481.98 197.17Q480.95 197.88 479.25 197.88M479.78 196.06Q481.36 196.06 482.30 195.29Q483.23 194.52 483.23 193.20L483.23 191.35L479.39 191.35Q478.34 191.35 477.68 191.99Q477.02 192.62 477.02 193.68Q477.02 194.78 477.75 195.42Q478.48 196.06 479.78 196.06" fill="white" fill-opacity="0.7"/>
<path d="M499.96 197.64L496.12 197.64Q494.49 197.64 493.50 196.69Q492.52 195.74 492.52 194.16L492.52 186.41L488.73 186.41L488.73 184.44L492.52 184.44L492.52 180.72L494.68 180.72L494.68 184.44L500.08 184.44L500.08 186.41L494.68 186.41L494.68 194.16Q494.68 194.83 495.08 195.25Q495.47 195.67 496.12 195.67L499.96 195.67" fill="white" fill-opacity="0.7"/>
<path d="M515.32 197.64L504.04 197.64L504.04 195.67L508.72 195.67L508.72 186.41L504.52 186.41L504.52 184.44L510.88 184.44L510.88 195.67L515.32 195.67L515.32 197.64M509.56 182.06Q508.77 182.06 508.31 181.66Q507.86 181.25 507.86 180.55Q507.86 179.83 508.31 179.41Q508.77 178.99 509.56 178.99Q510.35 178.99 510.81 179.41Q511.26 179.83 511.26 180.55Q511.26 181.25 510.81 181.66Q510.35 182.06 509.56 182.06" fill="white" fill-opacity="0.7"/>
<path d="M523.79 197.88Q521.39 197.88 519.95 196.54Q518.51 195.19 518.51 192.84L518.51 189.24Q518.51 186.89 519.95 185.54Q521.39 184.20 523.79 184.20Q526.07 184.20 527.48 185.42Q528.88 186.65 528.95 188.76L526.79 188.76Q526.72 187.49 525.93 186.80Q525.14 186.12 523.79 186.12Q522.38 186.12 521.52 186.92Q520.67 187.73 520.67 189.22L520.67 192.84Q520.67 194.33 521.52 195.14Q522.38 195.96 523.79 195.96Q525.14 195.96 525.93 195.26Q526.72 194.57 526.79 193.32L528.95 193.32Q528.88 195.43 527.48 196.66Q526.07 197.88 523.79 197.88" fill="white" fill-opacity="0.7"/>
<path d="M551.25 197.88Q549.21 197.88 548.01 196.74Q546.81 195.60 546.81 193.75Q546.81 192.53 547.36 191.62Q547.91 190.70 548.90 190.19Q549.88 189.67 551.15 189.67L555.23 189.67L555.23 188.64Q555.23 186.07 552.42 186.07Q551.18 186.07 550.41 186.53Q549.64 186.98 549.59 187.80L547.43 187.80Q547.55 186.24 548.88 185.22Q550.22 184.20 552.42 184.20Q554.82 184.20 556.11 185.35Q557.39 186.50 557.39 188.57L557.39 197.64L555.26 197.64L555.26 195.24L555.21 195.24Q555.02 196.46 553.98 197.17Q552.95 197.88 551.25 197.88M551.78 196.06Q553.36 196.06 554.30 195.29Q555.23 194.52 555.23 193.20L555.23 191.35L551.39 191.35Q550.34 191.35 549.68 191.99Q549.02 192.62 549.02 193.68Q549.02 194.78 549.75 195.42Q550.48 196.06 551.78 196.06" fill="white" fill-opacity="0.7"/>
<path d="M566.99 197.88Q564.59 197.88 563.15 196.54Q561.71 195.19 561.71 192.84L561.71 189.24Q561.71 186.89 563.15 185.54Q564.59 184.20 566.99 184.20Q569.27 184.20 570.68 185.42Q572.08 186.65 572.15 188.76L569.99 188.76Q569.92 187.49 569.13 186.80Q568.34 186.12 566.99 186.12Q565.58 186.12 564.72 186.92Q563.87 187.73 563.87 189.22L563.87 192.84Q563.87 194.33 564.72 195.14Q565.58 195.96 566.99 195.96Q568.34 195.96 569.13 195.26Q569.92 194.57 569.99 193.32L572.15 193.32Q572.08 195.43 570.68 196.66Q569.27 197.88 566.99 197.88" fill="white" fill-opacity="0.7"/>
<path d="M581.39 197.88Q578.99 197.88 577.55 196.54Q576.11 195.19 576.11 192.84L576.11 189.24Q576.11 186.89 577.55 185.54Q578.99 184.20 581.39 184.20Q583.67 184.20 585.08 185.42Q586.48 186.65 586.55 188.76L584.39 188.76Q584.32 187.49 583.53 186.80Q582.74 186.12 581.39 186.12Q579.98 186.12 579.12 186.92Q578.27 187.73 578.27 189.22L578.27 192.84Q578.27 194.33 579.12 195.14Q579.98 195.96 581.39 195.96Q582.74 195.96 583.53 195.26Q584.32 194.57 584.39 193.32L586.55 193.32Q586.48 195.43 585.08 196.66Q583.67 197.88 581.39 197.88" fill="white" fill-opacity="0.7"/>
<path d="M595.60 197.88Q593.27 197.88 591.84 196.48Q590.42 195.07 590.42 192.60L590.42 189.48Q590.42 187.01 591.84 185.60Q593.27 184.20 595.60 184.20Q597.16 184.20 598.32 184.82Q599.49 185.45 600.14 186.58Q600.78 187.70 600.78 189.24L600.78 191.59L592.53 191.59L592.53 192.84Q592.53 194.30 593.37 195.16Q594.21 196.01 595.60 196.01Q596.80 196.01 597.58 195.54Q598.36 195.07 598.53 194.28L600.69 194.28Q600.47 195.94 599.08 196.91Q597.69 197.88 595.60 197.88M592.53 189.24L592.53 189.91L598.67 189.91L598.67 189.24Q598.67 187.68 597.87 186.83Q597.06 185.98 595.60 185.98Q594.14 185.98 593.33 186.83Q592.53 187.68 592.53 189.24" fill="white" fill-opacity="0.7"/>
<path d="M610.53 197.83L609.47 197.83Q607.26 197.83 606.05 196.84Q604.84 195.84 604.84 194.02L607 194.02Q607 194.93 607.65 195.44Q608.30 195.96 609.47 195.96L610.53 195.96Q611.73 195.96 612.39 195.43Q613.05 194.90 613.05 193.94Q613.05 192.24 611.49 192.02L607.84 191.50Q606.50 191.30 605.75 190.38Q605.01 189.46 605.01 187.94Q605.01 186.22 606.20 185.23Q607.38 184.25 609.47 184.25L610.53 184.25Q612.45 184.25 613.66 185.20Q614.87 186.14 614.97 187.68L612.78 187.68Q612.74 186.98 612.12 186.53Q611.51 186.07 610.53 186.07L609.47 186.07Q608.37 186.07 607.74 186.58Q607.12 187.08 607.12 187.94Q607.12 189.34 608.39 189.53L611.80 190.01Q615.16 190.49 615.16 193.94Q615.16 195.79 613.95 196.81Q612.74 197.83 610.53 197.83" fill="white" fill-opacity="0.7"/>
<path d="M624.93 197.83L623.87 197.83Q621.66 197.83 620.45 196.84Q619.24 195.84 619.24 194.02L621.40 194.02Q621.40 194.93 622.05 195.44Q622.70 195.96 623.87 195.96L624.93 195.96Q626.13 195.96 626.79 195.43Q627.45 194.90 627.45 193.94Q627.45 192.24 625.89 192.02L622.24 191.50Q620.90 191.30 620.15 190.38Q619.41 189.46 619.41 187.94Q619.41 186.22 620.60 185.23Q621.78 184.25 623.87 184.25L624.93 184.25Q626.85 184.25 628.06 185.20Q629.27 186.14 629.37 187.68L627.18 187.68Q627.14 186.98 626.52 186.53Q625.91 186.07 624.93 186.07L623.87 186.07Q622.77 186.07 622.14 186.58Q621.52 187.08 621.52 187.94Q621.52 189.34 622.79 189.53L626.20 190.01Q629.56 190.49 629.56 193.94Q629.56 195.79 628.35 196.81Q627.14 197.83 624.93 197.83" fill="white" fill-opacity="0.7"/>
<path d="M658.36 197.64L654.52 197.64Q652.89 197.64 651.90 196.69Q650.92 195.74 650.92 194.16L650.92 186.41L647.13 186.41L647.13 184.44L650.92 184.44L650.92 180.72L653.08 180.72L653.08 184.44L658.48 184.44L658.48 186.41L653.08 186.41L653.08 194.16Q653.08 194.83 653.48 195.25Q653.87 195.67 654.52 195.67L658.36 195.67" fill="white" fill-opacity="0.7"/>
<path d="M667.60 197.83Q665.22 197.83 663.82 196.44Q662.42 195.05 662.42 192.55L662.42 189.53Q662.42 187.01 663.81 185.63Q665.20 184.25 667.60 184.25Q670 184.25 671.39 185.63Q672.78 187.01 672.78 189.53L672.78 192.55Q672.78 195.05 671.38 196.44Q669.98 197.83 667.60 197.83M667.60 195.91Q669.02 195.91 669.82 195.12Q670.62 194.33 670.62 192.79L670.62 189.29Q670.62 187.75 669.82 186.96Q669.02 186.17 667.60 186.17Q666.21 186.17 665.39 186.96Q664.58 187.75 664.58 189.29L664.58 192.79Q664.58 194.33 665.39 195.12Q666.21 195.91 667.60 195.91" fill="white" fill-opacity="0.7"/>
<path d="M693.57 197.64L691.41 197.64L691.41 180.12L697.05 180.12Q699.50 180.12 700.95 181.52Q702.40 182.93 702.40 185.28Q702.40 187.63 700.95 189.04Q699.50 190.44 697.05 190.44L693.57 190.44L693.57 197.64M693.57 182.06L693.57 188.50L697.05 188.50Q698.46 188.50 699.32 187.62Q700.17 186.74 700.17 185.28Q700.17 183.79 699.32 182.93Q698.46 182.06 697.05 182.06" fill="white" fill-opacity="0.7"/>
<path d="M710.80 197.83Q708.42 197.83 707.02 196.44Q705.62 195.05 705.62 192.55L705.62 189.53Q705.62 187.01 707.01 185.63Q708.40 184.25 710.80 184.25Q713.20 184.25 714.59 185.63Q715.98 187.01 715.98 189.53L715.98 192.55Q715.98 195.05 714.58 196.44Q713.18 197.83 710.80 197.83M710.80 195.91Q712.22 195.91 713.02 195.12Q713.82 194.33 713.82 192.79L713.82 189.29Q713.82 187.75 713.02 186.96Q712.22 186.17 710.80 186.17Q709.41 186.17 708.59 186.96Q707.78 187.75 707.78 189.29L707.78 192.79Q707.78 194.33 708.59 195.12Q709.41 195.91 710.80 195.91" fill="white" fill-opacity="0.7"/>
<path d="M725.73 197.83L724.67 197.83Q722.46 197.83 721.25 196.84Q720.04 195.84 720.04 194.02L722.20 194.02Q722.20 194.93 722.85 195.44Q723.50 195.96 724.67 195.96L725.73 195.96Q726.93 195.96 727.59 195.43Q728.25 194.90 728.25 193.94Q728.25 192.24 726.69 192.02L723.04 191.50Q721.70 191.30 720.95 190.38Q720.21 189.46 720.21 187.94Q720.21 186.22 721.40 185.23Q722.58 184.25 724.67 184.25L725.73 184.25Q727.65 184.25 728.86 185.20Q730.07 186.14 730.17 187.68L727.98 187.68Q727.94 186.98 727.32 186.53Q726.71 186.07 725.73 186.07L724.67 186.07Q723.57 186.07 722.94 186.58Q722.32 187.08 722.32 187.94Q722.32 189.34 723.59 189.53L727 190.01Q730.36 190.49 730.36 193.94Q730.36 195.79 729.15 196.81Q727.94 197.83 725.73 197.83" fill="white" fill-opacity="0.7"/>
<path d="M744.76 197.64L740.92 197.64Q739.29 197.64 738.30 196.69Q737.32 195.74 737.32 194.16L737.32 186.41L733.53 186.41L733.53 184.44L737.32 184.44L737.32 180.72L739.48 180.72L739.48 184.44L744.88 184.44L744.88 186.41L739.48 186.41L739.48 194.16Q739.48 194.83 739.88 195.25Q740.27 195.67 740.92 195.67L744.76 195.67" fill="white" fill-opacity="0.7"/>
<path d="M750.26 197.64L748.24 197.64L748.24 184.44L750.11 184.44L750.11 186.19L750.16 186.19Q750.28 185.30 750.87 184.75Q751.46 184.20 752.37 184.20Q753.23 184.20 753.83 184.70Q754.43 185.21 754.70 186.07L754.72 186.07Q754.89 185.21 755.48 184.70Q756.06 184.20 756.98 184.20Q758.25 184.20 759 185.15Q759.76 186.10 759.76 187.61L759.76 197.64L757.74 197.64L757.74 187.58Q757.74 186.79 757.36 186.32Q756.98 185.86 756.30 185.86Q755.66 185.86 755.27 186.31Q754.89 186.77 754.89 187.56L754.89 197.64L753.11 197.64L753.11 187.58Q753.11 186.79 752.73 186.32Q752.34 185.86 751.70 185.86Q751.02 185.86 750.64 186.31Q750.26 186.77 750.26 187.56" fill="white" fill-opacity="0.7"/>
<path d="M767.25 197.88Q765.21 197.88 764.01 196.74Q762.81 195.60 762.81 193.75Q762.81 192.53 763.36 191.62Q763.91 190.70 764.90 190.19Q765.88 189.67 767.15 189.67L771.23 189.67L771.23 188.64Q771.23 186.07 768.42 186.07Q767.18 186.07 766.41 186.53Q765.64 186.98 765.59 187.80L763.43 187.80Q763.55 186.24 764.88 185.22Q766.22 184.20 768.42 184.20Q770.82 184.20 772.11 185.35Q773.39 186.50 773.39 188.57L773.39 197.64L771.26 197.64L771.26 195.24L771.21 195.24Q771.02 196.46 769.98 197.17Q768.95 197.88 767.25 197.88M767.78 196.06Q769.36 196.06 770.30 195.29Q771.23 194.52 771.23 193.20L771.23 191.35L767.39 191.35Q766.34 191.35 765.68 191.99Q765.02 192.62 765.02 193.68Q765.02 194.78 765.75 195.42Q766.48 196.06 767.78 196.06" fill="white" fill-opacity="0.7"/>
<path d="M779.97 197.64L777.81 197.64L777.81 184.44L779.97 184.44L779.97 186.96L779.99 186.96Q780.16 185.64 781.07 184.92Q781.98 184.20 783.50 184.20Q785.49 184.20 786.66 185.42Q787.84 186.65 787.84 188.76L787.84 197.64L785.68 197.64L785.68 189.14Q785.68 187.63 784.92 186.83Q784.17 186.02 782.87 186.02Q781.53 186.02 780.75 186.86Q779.97 187.70 779.97 189.24" fill="white" fill-opacity="0.7"/>
<path d="M810.45 197.88Q808.41 197.88 807.21 196.74Q806.01 195.60 806.01 193.75Q806.01 192.53 806.56 191.62Q807.11 190.70 808.10 190.19Q809.08 189.67 810.35 189.67L814.43 189.67L814.43 188.64Q814.43 186.07 811.62 186.07Q810.38 186.07 809.61 186.53Q808.84 186.98 808.79 187.80L806.63 187.80Q806.75 186.24 808.08 185.22Q809.42 184.20 811.62 184.20Q814.02 184.20 815.31 185.35Q816.59 186.50 816.59 188.57L816.59 197.64L814.46 197.64L814.46 195.24L814.41 195.24Q814.22 196.46 813.18 197.17Q812.15 197.88 810.45 197.88M810.98 196.06Q812.56 196.06 813.50 195.29Q814.43 194.52 814.43 193.20L814.43 191.35L810.59 191.35Q809.54 191.35 808.88 191.99Q808.22 192.62 808.22 193.68Q808.22 194.78 808.95 195.42Q809.68 196.06 810.98 196.06" fill="white" fill-opacity="0.7"/>
<path d="M826.19 197.88Q823.79 197.88 822.35 196.54Q820.91 195.19 820.91 192.84L820.91 189.24Q820.91 186.89 822.35 185.54Q823.79 184.20 826.19 184.20Q828.47 184.20 829.88 185.42Q831.28 186.65 831.35 188.76L829.19 188.76Q829.12 187.49 828.33 186.80Q827.54 186.12 826.19 186.12Q824.78 186.12 823.92 186.92Q823.07 187.73 823.07 189.22L823.07 192.84Q823.07 194.33 823.92 195.14Q824.78 195.96 826.19 195.96Q827.54 195.96 828.33 195.26Q829.12 194.57 829.19 193.32L831.35 193.32Q831.28 195.43 829.88 196.66Q828.47 197.88 826.19 197.88" fill="white" fill-opacity="0.7"/>
<path d="M840.59 197.88Q838.19 197.88 836.75 196.54Q835.31 195.19 835.31 192.84L835.31 189.24Q835.31 186.89 836.75 185.54Q838.19 184.20 840.59 184.20Q842.87 184.20 844.28 185.42Q845.68 186.65 845.75 188.76L843.59 188.76Q843.52 187.49 842.73 186.80Q841.94 186.12 840.59 186.12Q839.18 186.12 838.32 186.92Q837.47 187.73 837.47 189.22L837.47 192.84Q837.47 194.33 838.32 195.14Q839.18 195.96 840.59 195.96Q841.94 195.96 842.73 195.26Q843.52 194.57 843.59 193.32L845.75 193.32Q845.68 195.43 844.28 196.66Q842.87 197.88 840.59 197.88" fill="white" fill-opacity="0.7"/>
<path d="M854.80 197.83Q852.42 197.83 851.02 196.44Q849.62 195.05 849.62 192.55L849.62 189.53Q849.62 187.01 851.01 185.63Q852.40 184.25 854.80 184.25Q857.20 184.25 858.59 185.63Q859.98 187.01 859.98 189.53L859.98 192.55Q859.98 195.05 858.58 196.44Q857.18 197.83 854.80 197.83M854.80 195.91Q856.22 195.91 857.02 195.12Q857.82 194.33 857.82 192.79L857.82 189.29Q857.82 187.75 857.02 186.96Q856.22 186.17 854.80 186.17Q853.41 186.17 852.59 186.96Q851.78 187.75 851.78 189.29L851.78 192.79Q851.78 194.33 852.59 195.12Q853.41 195.91 854.80 195.91" fill="white" fill-opacity="0.7"/>
<path d="M869.18 197.88Q866.90 197.88 865.53 196.52Q864.16 195.17 864.16 192.84L864.16 184.44L866.32 184.44L866.32 192.84Q866.32 194.28 867.09 195.13Q867.86 195.98 869.18 195.98Q870.52 195.98 871.30 195.13Q872.08 194.28 872.08 192.84L872.08 184.44L874.24 184.44L874.24 192.84Q874.24 195.17 872.85 196.52Q871.46 197.88 869.18 197.88" fill="white" fill-opacity="0.7"/>
<path d="M880.77 197.64L878.61 197.64L878.61 184.44L880.77 184.44L880.77 186.96L880.79 186.96Q880.96 185.64 881.87 184.92Q882.78 184.20 884.30 184.20Q886.29 184.20 887.46 185.42Q888.64 186.65 888.64 188.76L888.64 197.64L886.48 197.64L886.48 189.14Q886.48 187.63 885.72 186.83Q884.97 186.02 883.67 186.02Q882.33 186.02 881.55 186.86Q880.77 187.70 880.77 189.24" fill="white" fill-opacity="0.7"/>
<path d="M903.16 197.64L899.32 197.64Q897.69 197.64 896.70 196.69Q895.72 195.74 895.72 194.16L895.72 186.41L891.93 186.41L891.93 184.44L895.72 184.44L895.72 180.72L897.88 180.72L897.88 184.44L903.28 184.44L903.28 186.41L897.88 186.41L897.88 194.16Q897.88 194.83 898.28 195.25Q898.67 195.67 899.32 195.67L903.16 195.67" fill="white" fill-opacity="0.7"/>
<path d="M926.03 197.88Q924.06 197.88 922.88 196.56Q921.69 195.24 921.69 192.98L921.69 189.12Q921.69 186.84 922.86 185.52Q924.04 184.20 926.03 184.20Q927.52 184.20 928.49 184.94Q929.46 185.69 929.66 186.96L929.68 186.96L929.63 183.96L929.63 180.12L931.79 180.12L931.79 197.64L929.63 197.64L929.63 195.12L929.61 195.12Q929.44 196.42 928.48 197.15Q927.52 197.88 926.03 197.88M926.75 196.01Q928.10 196.01 928.86 195.17Q929.63 194.33 929.63 192.84L929.63 189.24Q929.63 187.75 928.86 186.91Q928.10 186.07 926.75 186.07Q925.38 186.07 924.62 186.78Q923.85 187.49 923.85 189.12L923.85 192.96Q923.85 194.57 924.62 195.29Q925.38 196.01 926.75 196.01" fill="white" fill-opacity="0.7"/>
<path d="M940.05 197.88Q938.01 197.88 936.81 196.74Q935.61 195.60 935.61 193.75Q935.61 192.53 936.16 191.62Q936.71 190.70 937.70 190.19Q938.68 189.67 939.95 189.67L944.03 189.67L944.03 188.64Q944.03 186.07 941.22 186.07Q939.98 186.07 939.21 186.53Q938.44 186.98 938.39 187.80L936.23 187.80Q936.35 186.24 937.68 185.22Q939.02 184.20 941.22 184.20Q943.62 184.20 944.91 185.35Q946.19 186.50 946.19 188.57L946.19 197.64L944.06 197.64L944.06 195.24L944.01 195.24Q943.82 196.46 942.78 197.17Q941.75 197.88 940.05 197.88M940.58 196.06Q942.16 196.06 943.10 195.29Q944.03 194.52 944.03 193.20L944.03 191.35L940.19 191.35Q939.14 191.35 938.48 191.99Q937.82 192.62 937.82 193.68Q937.82 194.78 938.55 195.42Q939.28 196.06 940.58 196.06" fill="white" fill-opacity="0.7"/>
<path d="M960.76 197.64L956.92 197.64Q955.29 197.64 954.30 196.69Q953.32 195.74 953.32 194.16L953.32 186.41L949.53 186.41L949.53 184.44L953.32 184.44L953.32 180.72L955.48 180.72L955.48 184.44L960.88 184.44L960.88 186.41L955.48 186.41L955.48 194.16Q955.48 194.83 955.88 195.25Q956.27 195.67 956.92 195.67L960.76 195.67" fill="white" fill-opacity="0.7"/>
<path d="M968.85 197.88Q966.81 197.88 965.61 196.74Q964.41 195.60 964.41 193.75Q964.41 192.53 964.96 191.62Q965.51 190.70 966.50 190.19Q967.48 189.67 968.75 189.67L972.83 189.67L972.83 188.64Q972.83 186.07 970.02 186.07Q968.78 186.07 968.01 186.53Q967.24 186.98 967.19 187.80L965.03 187.80Q965.15 186.24 966.48 185.22Q967.82 184.20 970.02 184.20Q972.42 184.20 973.71 185.35Q974.99 186.50 974.99 188.57L974.99 197.64L972.86 197.64L972.86 195.24L972.81 195.24Q972.62 196.46 971.58 197.17Q970.55 197.88 968.85 197.88M969.38 196.06Q970.96 196.06 971.90 195.29Q972.83 194.52 972.83 193.20L972.83 191.35L968.99 191.35Q967.94 191.35 967.28 191.99Q966.62 192.62 966.62 193.68Q966.62 194.78 967.35 195.42Q968.08 196.06 969.38 196.06" fill="white" fill-opacity="0.7"/>
<path d="M984.40 197.88Q983.51 197.88 982.97 197.35Q982.43 196.82 982.43 195.98Q982.43 195.10 982.97 194.54Q983.51 193.99 984.40 193.99Q985.29 193.99 985.83 194.54Q986.37 195.10 986.37 195.98Q986.37 196.82 985.83 197.35Q985.29 197.88 984.40 197.88" fill="white" fill-opacity="0.7"/>
<path d="M91.18 137.02Q81.49 137.02 75.78 131.60Q70.06 126.17 70.06 116.67L70.06 85.28Q70.06 75.87 75.78 70.44Q81.49 65.02 91.18 65.02Q100.78 65.02 106.50 70.49Q112.21 75.96 112.21 85.28L102.70 85.28Q102.70 79.61 99.63 76.54Q96.56 73.47 91.18 73.47Q85.71 73.47 82.64 76.54Q79.57 79.61 79.57 85.28L79.57 116.67Q79.57 122.43 82.64 125.50Q85.71 128.57 91.18 128.57Q96.56 128.57 99.63 125.50Q102.70 122.43 102.70 116.67L102.70 107.55L89.07 107.55L89.07 99.10L112.21 99.10L112.21 116.67Q112.21 126.08 106.50 131.55Q100.78 137.02 91.18 137.02M169.71 136.06L128.91 136.06L128.91 65.98L169.71 65.98L169.71 74.52L138.32 74.52L138.32 95.36L166.35 95.36L166.35 103.61L138.32 103.61L138.32 127.52L169.71 127.52L169.71 136.06M210.80 136.06L201.30 136.06L201.30 74.62L182.29 74.62L182.29 65.98L229.71 65.98L229.71 74.62L210.80 74.62L210.80 136.06M252.75 136.06L243.25 136.06L243.25 65.98L266 65.98Q272.72 65.98 277.62 68.57Q282.51 71.16 285.20 75.82Q287.89 80.48 287.89 86.91Q287.89 93.24 285.20 97.90Q282.51 102.56 277.57 105.15Q272.62 107.74 266 107.74L252.75 107.74L252.75 136.06M252.75 74.43L252.75 99.29L266 99.29Q271.57 99.29 274.83 95.88Q278.10 92.48 278.10 86.91Q278.10 81.24 274.83 77.84Q271.57 74.43 266 74.43L252.75 74.43M321.20 137.02Q311.60 137.02 306.03 131.45Q300.46 125.88 300.46 115.71L300.46 86.24Q300.46 76.16 306.03 70.59Q311.60 65.02 321.20 65.02Q330.80 65.02 336.37 70.54Q341.94 76.06 341.94 86.24L341.94 115.71Q341.94 125.88 336.37 131.45Q330.80 137.02 321.20 137.02M321.20 128.57Q326.58 128.57 329.50 125.50Q332.43 122.43 332.43 116.67L332.43 85.28Q332.43 79.61 329.55 76.54Q326.67 73.47 321.20 73.47Q315.73 73.47 312.85 76.54Q309.97 79.61 309.97 85.28L309.97 116.67Q309.97 122.43 312.90 125.50Q315.82 128.57 321.20 128.57M379.18 137.02Q368.82 137.02 362.67 131.60Q356.53 126.17 356.53 116.67L366.03 116.67Q366.03 122.24 369.58 125.40Q373.14 128.57 379.18 128.57Q384.94 128.57 388.35 125.36Q391.76 122.14 391.76 116.76Q391.76 112.73 389.55 109.71Q387.34 106.68 383.31 105.63L372.94 102.84Q366.13 100.92 362.14 95.88Q358.16 90.84 358.16 83.93Q358.16 78.27 360.70 74Q363.25 69.72 367.86 67.37Q372.46 65.02 378.51 65.02Q384.66 65.02 389.31 67.37Q393.97 69.72 396.56 73.95Q399.15 78.17 399.15 83.74L389.74 83.74Q389.74 79.13 386.62 76.25Q383.50 73.37 378.51 73.37Q373.52 73.37 370.50 76.25Q367.47 79.13 367.47 83.74Q367.47 87.48 369.49 90.03Q371.50 92.57 375.15 93.63L385.81 96.51Q393.01 98.43 397.04 103.85Q401.07 109.28 401.07 116.76Q401.07 122.91 398.38 127.47Q395.70 132.03 390.75 134.52Q385.81 137.02 379.18 137.02M441.20 136.06L431.70 136.06L431.70 74.62L412.69 74.62L412.69 65.98L460.11 65.98L460.11 74.62L441.20 74.62L441.20 136.06M480.75 136.06L471.73 136.06L471.73 65.98L485.17 65.98L493.81 96.22L502.83 65.98L516.37 65.98L516.37 136.06L507.25 136.06L507.25 103.90Q507.25 98.81 507.44 92.62Q507.63 86.43 507.97 80.24Q508.30 74.04 508.69 69.05L497.74 104.96L489.68 104.96L479.12 69.92Q479.98 76.92 480.37 85.52Q480.75 94.11 480.75 103.90L480.75 136.06M536.91 136.06L527.22 136.06L545.36 65.98L557.94 65.98L575.98 136.06L566.29 136.06L561.87 117.82L541.33 117.82L536.91 136.06M548.34 88.92L543.25 109.95L559.95 109.95L554.96 89.02Q553.52 83.26 552.66 79.23Q551.79 75.20 551.60 73.76Q551.41 75.20 550.54 79.23Q549.68 83.26 548.34 88.92M597.58 136.06L588.66 136.06L588.66 65.98L600.94 65.98L621.87 125.12Q621.58 122.62 621.34 118.92Q621.10 115.23 620.96 111.24Q620.82 107.26 620.82 103.71L620.82 65.98L629.84 65.98L629.84 136.06L617.46 136.06L596.72 76.92Q596.91 79.42 597.10 83.02Q597.30 86.62 597.44 90.56Q597.58 94.49 597.58 97.95" fill="url(#paint2_linear_0_1)"/>
<g id="Group 1">
<rect id="Rectangle 1" x="26" y="168" width="12" height="184" rx="5" fill="url(#paint3_linear_0_1)" fill-opacity="0.9"/>
</g>
<g id="Group 1_2">
<rect id="Rectangle 2" x="26" y="38" width="12" height="119" rx="5" fill="url(#paint4_linear_0_1)" fill-opacity="0.9"/>
</g>
<ellipse id="Ellipse 1" cx="148.5" cy="573" rx="215.5" ry="214" fill="url(#paint5_linear_0_1)" fill-opacity="0.4"/>
<rect id="Rectangle 3" x="1229" y="48" width="300" height="300" rx="25" fill="#FFFBFB" fill-opacity="0.9"/>
<g id="placeholder-logo"><g transform="translate(1229,48) translate(0.0,75.0) scale(2.5000)"><style><![CDATA[.C{fill:#fff}.D{fill:#ff6c37}]]></style><path d="M39.92 34.652v-6.93a.31.31 0 0 1 .091-.207.4.4 0 0 1 .259-.091h1.943c.578-.026 1.146.163 1.593.53.42.44.638 1.037.596 1.645v.09a2.19 2.19 0 0 1-.609 1.697c-.45.374-1.022.568-1.606.544h-1.4v2.72c.004.093-.046.18-.13.22a.57.57 0 0 1-.609 0c-.08-.043-.13-.128-.13-.22zm.868-3.393h1.4c.37.027.732-.105.997-.363.258-.306.388-.7.363-1.1v-.13a1.53 1.53 0 0 0-.363-1.088c-.265-.258-.628-.4-.997-.363h-1.4zm6.63 1.515v-3.108a2.19 2.19 0 0 1 .609-1.697 2.67 2.67 0 0 1 3.225 0c.443.448.666 1.07.61 1.697v3.108a2.15 2.15 0 0 1-.609 1.71 2.67 2.67 0 0 1-3.225 0 2.2 2.2 0 0 1-.609-1.71zm.868 0c0 .97.453 1.464 1.295 1.464.373.03.742-.1 1-.363a1.49 1.49 0 0 0 .35-1.101v-3.108a1.45 1.45 0 0 0-.35-1.088c-.268-.26-.637-.394-1-.363-.907 0-1.295.48-1.295 1.45zM54.97 33.9a.49.49 0 0 1 .117-.324c.053-.088.144-.145.246-.155.094.016.18.062.246.13l.298.285c.136.133.3.235.48.298a2.2 2.2 0 0 0 .764.13 1.62 1.62 0 0 0 1.049-.337c.263-.24.402-.59.376-.945.02-.342-.108-.677-.35-.92a2.24 2.24 0 0 0-.842-.544l-1.088-.39c-.33-.143-.62-.365-.842-.648-.248-.322-.372-.72-.35-1.127-.01-.327.062-.652.207-.945.12-.247.31-.454.544-.596a2.45 2.45 0 0 1 .712-.298 3.33 3.33 0 0 1 .803-.104c.414 0 .825.065 1.217.194s.583.298.583.492a.53.53 0 0 1-.104.311c-.05.104-.156.17-.272.168a2.76 2.76 0 0 1-.453-.181c-.303-.128-.63-.194-.958-.194a1.8 1.8 0 0 0-1.01.246.92.92 0 0 0-.389.816c-.01.297.113.582.337.777.255.205.544.363.855.466l1 .39a2.1 2.1 0 0 1 1.179 1.995c.042.6-.18 1.186-.61 1.606a2.45 2.45 0 0 1-1.645.544 2.9 2.9 0 0 1-1.541-.389c-.39-.26-.57-.518-.57-.75zm6.994-6.087a.4.4 0 0 1 .091-.272.26.26 0 0 1 .22-.117h4.196c.092-.003.18.04.233.117a.48.48 0 0 1 .078.272c.001.096-.026.19-.078.272s-.14.128-.233.13h-1.645v6.476c.001.092-.05.177-.13.22a.57.57 0 0 1-.609 0c-.08-.043-.13-.128-.13-.22v-6.476h-1.684a.26.26 0 0 1-.22-.117.48.48 0 0 1-.104-.285zm7.745 6.838v-6.787c-.02-.1.004-.203.062-.286s.148-.14.25-.154h.13c.26 0 .518.18.686.544l1.62 3.108 1.632-3.108c.194-.363.427-.544.686-.544.204-.03.394.108.427.31.013.033.013.07 0 .104v6.787c.01.094-.036.184-.117.233-.2.104-.42.104-.61 0-.088-.043-.14-.136-.13-.233v-5.388L72.8 32.19c-.054.147-.193.245-.35.246-.146-.006-.272-.105-.31-.246l-1.62-3.005v5.466a.22.22 0 0 1-.117.22c-.09.06-.19.095-.298.104-.106.002-.21-.03-.298-.09a.22.22 0 0 1-.091-.233zm8.457-.052c-.006-.026-.006-.052 0-.078l2.098-6.787c.065-.207.233-.31.518-.31s.466.104.518.31l2.137 6.812c-.01.11-.074.205-.168.26-.114.066-.244.102-.376.104-.137.02-.268-.063-.31-.194l-.44-1.45h-2.72l-.453 1.515c-.038.135-.173.22-.31.194-.124-.002-.245-.038-.35-.104-.104-.05-.17-.156-.168-.272zm1.49-2.072h2.305l-1.166-3.885zm6.8 2.124v-6.93c0-.194.13-.298.427-.298.133-.002.262.044.363.13.126.117.227.258.298.414l2.6 5.025v-5.27c-.001-.092.05-.177.13-.22.2-.104.42-.104.61 0 .08.043.13.128.13.22v6.93c.001.092-.05.177-.13.22-.087.06-.192.093-.298.09-.248-.013-.466-.17-.557-.4l-2.68-5.18v5.27a.22.22 0 0 1-.117.22.57.57 0 0 1-.609 0c-.1-.025-.165-.12-.155-.22z" class="C"/><path d="M32.42 20.5c-3.842-4.976-10.304-7.146-16.37-5.5S5.504 21.787 4.704 28.022s2.234 12.34 7.69 15.464 12.255 2.656 17.23-1.188c6.8-5.248 8.03-15.006 2.798-21.797z" class="D"/><path d="M25.362 24.36l-6.553 6.605-1.852-1.904c6.45-6.45 7.097-5.867 8.418-4.7z" class="C"/><path d="M18.808 31.147c-.058-.001-.113-.025-.155-.065l-1.865-1.865c-.087-.1-.087-.233 0-.324 6.346-6.346 7.227-6.06 8.73-4.7.05.04.08.103.078.168.01.064-.015.128-.065.168l-6.553 6.553c-.046.042-.106.065-.168.065zm-1.528-2.072l1.528 1.528 6.217-6.217a1.4 1.4 0 0 0-1.839-.311c-1.127.518-2.94 2.046-5.906 5z" class="D"/><path d="M20.686 32.792L18.9 30.98l6.553-6.476c1.76 1.723-.855 4.598-4.766 8.29z" class="C"/><path d="M20.686 33.025c-.057-.005-.112-.027-.155-.065l-1.813-1.787c-.027-.066-.027-.14 0-.207-.02-.054-.02-.114 0-.168l6.553-6.553c.095-.09.242-.09.337 0 .43.395.666.958.648 1.54 0 1.748-1.995 3.95-5.388 7.162-.045.045-.105.072-.168.078zm-1.45-2.072l1.464 1.464c2.6-2.46 5.05-4.973 5.077-6.683.014-.363-.106-.718-.337-.997z" class="D"/><path d="M17.008 29.1l1.295 1.295c.017.015.026.036.026.058s-.01.044-.026.058l-2.72.583a.26.26 0 0 1-.233-.44l1.593-1.58s.052 0 .078.026z" class="C"/><path d="M15.506 31.355c-.176-.002-.337-.095-.427-.246a.49.49 0 0 1 .091-.583l1.58-1.593a.31.31 0 0 1 .414 0l1.295 1.295c.077.073.107.183.078.285s-.115.183-.22.207l-2.72.583zm1.45-1.97l-1.464 1.464 2.422-.518zm.13-.13z" class="D"/><path d="M28.846 20.722c-.937-.902-2.408-.94-3.4-.086s-1.15 2.315-.388 3.37 2.208 1.35 3.325.68l-1.76-1.76z" class="C"/><path d="M27.097 25.28c-1.1-.014-2.087-.685-2.504-1.704s-.186-2.188.588-2.972a2.77 2.77 0 0 1 3.885 0 .22.22 0 0 1 0 .337l-2.098 1.982 1.593 1.554a.22.22 0 0 1 .065.194c-.008.07-.046.13-.104.168a2.81 2.81 0 0 1-1.425.427zm0-5.025a2.28 2.28 0 0 0-1.606 3.885c.66.662 1.656.852 2.513.48l-1.528-1.528c-.05-.04-.078-.1-.078-.162s.03-.123.078-.162l2.02-2.033a2.32 2.32 0 0 0-1.399-.479z" class="D"/><path d="M28.885 20.76l-2.202 2.202 1.76 1.76a2.68 2.68 0 0 0 .492-.363 2.59 2.59 0 0 0-.039-3.601z" class="C"/><path d="M28.392 24.918c-.06.003-.116-.02-.155-.065l-1.76-1.76c-.05-.04-.078-.1-.078-.162s.03-.123.078-.162l2.202-2.163c.043-.065.116-.104.194-.104s.15.04.194.104a2.72 2.72 0 0 1 0 3.885c-.152.162-.327.3-.518.414-.048.024-.104.03-.155.013zm-1.425-1.995l1.464 1.464c.1-.07.196-.148.285-.233a2.29 2.29 0 0 0 .673-1.619 2.23 2.23 0 0 0-.557-1.476z" class="D"/><path d="M25.634 24.633c-.364-.342-.93-.342-1.295 0l-5.867 5.854.97.984 6.217-5.44a.96.96 0 0 0-.013-1.399z" class="C"/><path d="M19.39 31.704c-.058-.001-.113-.025-.155-.065l-.984-.984c-.087-.1-.087-.233 0-.324l5.867-5.828a1.19 1.19 0 0 1 2.033.881c-.013.327-.158.635-.4.855l-6.217 5.44a.22.22 0 0 1-.155.039zm-.686-1.217l.648.648 6.087-5.3a.71.71 0 0 0 .246-.518c.008-.2-.073-.395-.22-.53-.283-.282-.74-.282-1.023 0z" class="D"/><path d="M13.926 37.157a.13.13 0 0 0 0 .155l.26 1.127c.022.134-.042.268-.16.335s-.267.052-.37-.037l-1.774-1.7 5.53-5.57h1.917l1.295 1.295c-2.02 1.767-4.273 3.248-6.696 4.404z" class="C"/><path d="M13.81 39.06c-.147-.003-.286-.063-.39-.168l-1.684-1.684c-.05-.04-.078-.1-.078-.162s.03-.123.078-.162l5.57-5.57a.22.22 0 0 1 .117-.065h1.943c.05-.018.105-.018.155 0l1.295 1.295c.05.046.074.114.065.18.002.065-.027.128-.078.168l-.104.09a31.73 31.73 0 0 1-6.644 4.261l.26 1.036c.04.164.002.337-.1.47s-.26.213-.43.216zm-1.58-2.033l1.528 1.554c.03.026.074.026.104 0 .02-.027.02-.064 0-.09l-.26-1.127c-.042-.167.04-.34.194-.414a31.85 31.85 0 0 0 6.476-4.17L19.2 31.717h-1.736zm1.865.233z" class="D"/><path d="M10.545 38.36l1.295-1.295 1.995 1.995-3.173-.22a.26.26 0 0 1-.117-.479z" class="C"/><path d="M13.874 39.255l-3.16-.22a.49.49 0 0 1-.311-.829l1.295-1.295c.1-.087.233-.087.324 0l1.982 1.982a.22.22 0 0 1 0 .259c-.03.048-.076.085-.13.104zm-3.16-.725l2.6.168-1.425-1.334z" class="D"/><path d="M19.508 31.614l-2.616.39 1.515-1.502z" class="C"/><path d="M16.892 32.26a.22.22 0 0 1-.207-.13.22.22 0 0 1 0-.259l1.502-1.515c.095-.09.242-.09.337 0l1.1 1.1a.22.22 0 0 1 0 .233.22.22 0 0 1-.181.168l-2.6.39zm1.515-1.425l-.842.842 1.45-.22z" class="D"/><path d="M19.508 31.614l-1.813.233c-.1.023-.204-.023-.255-.112s-.037-.202.034-.276l.945-.945z" class="C"/><path d="M17.63 32.093a.48.48 0 0 1-.414-.246c-.102-.182-.07-.4.078-.557l.945-.945c.095-.09.242-.09.337 0l1.1 1.1c.067.063.1.16.06.247s-.1.147-.202.154l-1.813.233zm0-.48l1.373-.168-.61-.61-.777.777zm11.268-9.364c-.05-.085-.156-.118-.246-.078-.043.022-.076.06-.1.107s-.01.096.013.14c.09.19.066.417-.065.583-.034.032-.053.076-.053.123s.02.09.053.123c.033.013.07.013.104 0 .06.016.126-.004.168-.052.218-.266.263-.634.117-.945zm62.288 5.362l-1.53 3.295c-.14.278-.233.648-.5.648-.372 0-.417-.372-.557-.695l-1.252-2.737c-.093-.14-.093-.417-.278-.372-.233.047-.185.324-.185.5v5.613c0 .278 0 .557-.047.835s-.233.464-.5.464c-.278-.047-.372-.233-.417-.464v-8.722c0-.372-.093-.88.324-1.02.464-.14.742.233.927.648l1.425 3.155c.14.278.185.777.557.835.417 0 .464-.557.604-.835l1.425-3.062c.185-.417.417-.835.927-.742.5.14.372.648.372 1.067v8.073c0 .417.14 1.067-.464 1.067-.648 0-.5-.648-.5-1.114v-5.336c-.047-.372.047-.742-.324-1.114zm19.903.233c-.278.278-.185.648-.185.974v5.52c0 .324.093.835-.372.835-.5.047-.5-.464-.5-.835v-8.548c0-.324-.047-.742.324-.835.417-.14.648.185.835.557l2.273 5.058c.14.372.324.695.464 1.067.093.185.093.464.372.372.233-.093.185-.372.185-.557v-5.44c0-.233 0-.417.047-.648.047-.324.233-.464.5-.464.278.047.372.278.372.557v8.583c0 .372.14.88-.324 1.02-.5.185-.695-.324-.88-.742l-2.598-5.753c-.14-.278-.185-.604-.5-.742zm-52.657 2.18c-.047 1.02.047 1.995-.093 3.015-.233 1.425-1.02 2.134-2.46 2.134-1.53 0-2.413-.648-2.598-2.088-.233-2.088-.278-4.222 0-6.3.185-1.347 1.114-1.995 2.505-1.995s2.273.695 2.505 1.995c.233 1.114.093 2.18.14 3.247zm-.927 0V27.66c-.047-1.204-.695-1.904-1.76-1.856-1.02 0-1.624.648-1.684 1.856v4.792c.047 1.204.648 1.856 1.684 1.904 1.067 0 1.716-.648 1.76-1.904.047-.777 0-1.577 0-2.413zm46.755 4.5c0 .324-.047.557-.324.604-.233.047-.417 0-.5-.278-.047-.185-.14-.417-.185-.604-.417-1.425-.417-1.425-1.684-1.425h-.407c-1.577 0-1.577 0-2.134 1.684-.093.324-.14.777-.604.648-.464-.185-.324-.648-.233-1.02l2.273-8.398c.14-.417.185-1.02.777-.974.5.047.604.557.695.974l2.134 7.978c.093.278.14.557.185.835zm-3.108-2.598h.464c1.02 0 1.067-.047.742-1.204l-.88-3.294c-.047-.233 0-.557-.278-.557s-.324.324-.372.604l-.742 2.785c-.464 1.684-.417 1.684 1.067 1.684zm-59.05-1.9v-4.3c0-.695.233-.927.777-.927h1.577c2.134.047 2.923 1.02 2.875 3.48-.047 1.684-.88 2.645-2.33 2.737-.417 0-.777.047-1.204 0-.648-.047-.88.278-.835.974.047.835 0 1.684 0 2.46 0 .324-.047.695-.464.695s-.417-.372-.417-.742V30.04zm2.18.14c1.347 0 1.856-.324 2.088-1.3s.233-1.904-.464-2.645c-.742-.742-1.716-.417-2.598-.372-.324 0-.324.417-.324.742v2.088c0 1.484 0 1.484 1.3 1.484zm22.406 5.103c-.974 0-1.76-.185-2.366-.927-.185-.233-.417-.557-.14-.88.233-.278.5-.093.695.14.557.604 1.16.777 1.904.742.695-.047 1.204-.372 1.484-1.16.275-.718.113-1.53-.417-2.088-.5-.557-1.16-.777-1.81-1.114-.927-.417-1.624-1.02-1.716-2.273-.14-1.684.604-2.598 2.228-2.923.695-.14 1.347.047 1.948.278.324.093.604.372.464.777-.14.464-.464.278-.742.14-.604-.324-1.252-.324-1.856-.233-.5.093-.974.417-1.067 1.067s0 1.204.464 1.624c.604.5 1.3.695 1.948 1.02 1.02.5 1.577 1.392 1.577 2.69 0 1.204-.278 2.134-1.3 2.737-.464.324-.974.278-1.3.372zm10.162-4.872v-3.572c.047-.88-.278-1.16-.974-1.067-.278.047-.604 0-.88 0s-.464-.14-.464-.5c0-.278.185-.464.417-.464h4.732c.233 0 .417.14.417.417 0 .324-.185.5-.464.5-.324 0-.695.047-1.02 0-.648-.047-.835.278-.835.974v7.61c0 .372-.047.777-.464.777-.464 0-.464-.417-.464-.777v-3.885z" class="D"/></g></g>
</g>
<defs>
<linearGradient id="paint0_linear_0_1" x1="0" y1="198" x2="1584" y2="198" gradientUnits="userSpaceOnUse">
<stop stop-color="#3D052C"/>
<stop offset="1"/>
</linearGradient>
<linearGradient id="paint1_linear_0_1" x1="323" y1="-224" x2="323" y2="352" gradientUnits="userSpaceOnUse">
<stop stop-color="#28F6F2" stop-opacity="0.4"/>
<stop offset="1" stop-color="#17908E" stop-opacity="0.7"/>
</linearGradient>
<linearGradient id="paint2_linear_0_1" x1="148.5" y1="38" x2="148.5" y2="140" gradientUnits="userSpaceOnUse">
<stop stop-color="white"/>
<stop offset="1" stop-color="#999999"/>
</linearGradient>
<linearGradient id="paint3_linear_0_1" x1="38" y1="260" x2="26" y2="260" gradientUnits="userSpaceOnUse">
<stop stop-color="#D9D9D9"/>
<stop offset="1" stop-color="#737373"/>
</linearGradient>
<linearGradient id="paint4_linear_0_1" x1="38" y1="97.5" x2="26" y2="97.5" gradientUnits="userSpaceOnUse">
<stop stop-color="#D9D9D9"/>
<stop offset="1" stop-color="#737373"/>
</linearGradient>
<linearGradient id="paint5_linear_0_1" x1="27.5" y1="434.5" x2="148.5" y2="787" gradientUnits="userSpaceOnUse">
<stop stop-color="#2E21BC"/>
<stop offset="1" stop-color="#150F56"/>
</linearGradient>
<clipPath id="clip0_0_1">
<rect width="1584" height="396" fill="white"/>
</clipPath>
</defs>
</svg>
